<svg width="20" height="24" viewBox="0 0 20 24" fill="none" xmlns="http://www.w3.org/2000/svg">
<path d="M19.7074 14.7075L10.7074 23.7075C10.6146 23.8005 10.5043 23.8742 10.3829 23.9246C10.2615 23.9749 10.1314 24.0008 9.99995 24.0008C9.86853 24.0008 9.7384 23.9749 9.61701 23.9246C9.49561 23.8742 9.38532 23.8005 9.29245 23.7075L0.292446 14.7075C0.104805 14.5199 -0.000610352 14.2654 -0.000610352 14C-0.000610352 13.7346 0.104805 13.4801 0.292446 13.2925C0.480086 13.1049 0.734582 12.9994 0.999946 12.9994C1.26531 12.9994 1.5198 13.1049 1.70745 13.2925L8.99995 20.5863V1C8.99995 0.734784 9.1053 0.48043 9.29284 0.292893C9.48038 0.105357 9.73473 0 9.99995 0C10.2652 0 10.5195 0.105357 10.7071 0.292893C10.8946 0.48043 10.9999 0.734784 10.9999 1V20.5863L18.2924 13.2925C18.4801 13.1049 18.7346 12.9994 18.9999 12.9994C19.2653 12.9994 19.5198 13.1049 19.7074 13.2925C19.8951 13.4801 20.0005 13.7346 20.0005 14C20.0005 14.2654 19.8951 14.5199 19.7074 14.7075Z" fill="white"/>
</svg>
