<svg width="67" height="30" viewBox="0 0 67 30" fill="none" xmlns="http://www.w3.org/2000/svg">
<path d="M44.84 22.2C43.7867 22.2 42.8933 22.02 42.16 21.66C41.44 21.2867 40.8867 20.8067 40.5 20.22C40.1267 19.6333 39.9267 19.0133 39.9 18.36C39.8867 18.24 39.92 18.1467 40 18.08C40.08 18.0133 40.18 17.98 40.3 17.98H41.38C41.5 17.98 41.6067 18.0067 41.7 18.06C41.7933 18.1133 41.8667 18.2267 41.92 18.4C42.0533 18.8933 42.2667 19.3 42.56 19.62C42.8667 19.9267 43.2133 20.1533 43.6 20.3C44 20.4333 44.4133 20.5 44.84 20.5C45.4133 20.5 45.9333 20.3867 46.4 20.16C46.88 19.92 47.26 19.5733 47.54 19.12C47.82 18.6533 47.96 18.0933 47.96 17.44C47.96 16.84 47.82 16.3267 47.54 15.9C47.2733 15.46 46.9 15.1267 46.42 14.9C45.9533 14.66 45.4267 14.54 44.84 14.54C44.4 14.54 44.04 14.5933 43.76 14.7C43.48 14.8067 43.24 14.9333 43.04 15.08C42.8533 15.2267 42.68 15.3533 42.52 15.46C42.3733 15.5667 42.2067 15.62 42.02 15.62H40.98C40.86 15.62 40.7533 15.58 40.66 15.5C40.5667 15.4067 40.5267 15.3 40.54 15.18L41.18 8.5C41.1933 8.34 41.24 8.22 41.32 8.14C41.4133 8.04667 41.5333 8 41.68 8H48.66C48.7933 8 48.9 8.04667 48.98 8.14C49.0733 8.22 49.12 8.32667 49.12 8.46V9.24C49.12 9.38667 49.0733 9.5 48.98 9.58C48.9 9.66 48.7933 9.7 48.66 9.7H42.9L42.52 13.64C42.7067 13.52 43.0067 13.38 43.42 13.22C43.8333 13.0467 44.4 12.96 45.12 12.96C45.7733 12.96 46.3867 13.06 46.96 13.26C47.5467 13.46 48.0667 13.7533 48.52 14.14C48.9733 14.5267 49.3267 15 49.58 15.56C49.8333 16.1067 49.96 16.74 49.96 17.46C49.96 18.4733 49.7333 19.3333 49.28 20.04C48.84 20.7467 48.2333 21.2867 47.46 21.66C46.7 22.02 45.8267 22.2 44.84 22.2ZM52.1659 22C52.0326 22 51.9192 21.96 51.8259 21.88C51.7459 21.7867 51.7059 21.6733 51.7059 21.54V20.1C51.7059 19.9667 51.7459 19.86 51.8259 19.78C51.9192 19.6867 52.0326 19.64 52.1659 19.64H53.6059C53.7392 19.64 53.8459 19.6867 53.9259 19.78C54.0192 19.86 54.0659 19.9667 54.0659 20.1V21.54C54.0659 21.6733 54.0192 21.7867 53.9259 21.88C53.8459 21.96 53.7392 22 53.6059 22H52.1659ZM58.0332 22C57.9132 22 57.8132 21.96 57.7332 21.88C57.6665 21.7867 57.6332 21.68 57.6332 21.56C57.6332 21.4933 57.6398 21.44 57.6532 21.4C57.6798 21.36 57.6998 21.3267 57.7132 21.3L60.7732 17.04C60.4398 17.12 60.0798 17.16 59.6932 17.16C58.9465 17.1467 58.2798 17.0133 57.6932 16.76C57.1065 16.5067 56.6065 16.1667 56.1932 15.74C55.7798 15.3 55.4665 14.8067 55.2532 14.26C55.0398 13.7133 54.9332 13.14 54.9332 12.54C54.9332 11.9533 55.0332 11.38 55.2332 10.82C55.4465 10.26 55.7598 9.75333 56.1732 9.3C56.5998 8.84667 57.1265 8.48667 57.7532 8.22C58.3798 7.94 59.1198 7.8 59.9732 7.8C60.8132 7.8 61.5465 7.93333 62.1732 8.2C62.8132 8.45333 63.3465 8.80667 63.7732 9.26C64.2132 9.7 64.5332 10.2 64.7332 10.76C64.9465 11.32 65.0532 11.9 65.0532 12.5C65.0532 13.0467 64.9732 13.5467 64.8132 14C64.6532 14.4533 64.4598 14.86 64.2332 15.22C64.0198 15.58 63.8065 15.9133 63.5932 16.22L59.7532 21.6C59.6998 21.6667 59.6265 21.7533 59.5332 21.86C59.4398 21.9533 59.2998 22 59.1132 22H58.0332ZM59.9732 15.54C60.5332 15.54 61.0465 15.42 61.5132 15.18C61.9932 14.9267 62.3732 14.58 62.6532 14.14C62.9332 13.6867 63.0732 13.1467 63.0732 12.52C63.0732 11.8933 62.9332 11.36 62.6532 10.92C62.3732 10.4667 61.9932 10.12 61.5132 9.88C61.0465 9.62667 60.5332 9.5 59.9732 9.5C59.4265 9.5 58.9198 9.62667 58.4532 9.88C57.9865 10.12 57.6132 10.4667 57.3332 10.92C57.0532 11.36 56.9132 11.8933 56.9132 12.52C56.9132 13.1467 57.0532 13.6867 57.3332 14.14C57.6132 14.58 57.9865 14.9267 58.4532 15.18C58.9198 15.42 59.4265 15.54 59.9732 15.54Z" fill="#555555"/>
<path d="M27.4805 13.4039L22.1953 18.0164L23.7785 24.8836C23.8623 25.2426 23.8384 25.6183 23.7098 25.9638C23.5812 26.3093 23.3536 26.6092 23.0555 26.826C22.7574 27.0429 22.4019 27.167 22.0336 27.183C21.6654 27.1989 21.3005 27.1059 20.9848 26.9156L14.9953 23.2828L9.01878 26.9156C8.70304 27.1059 8.33821 27.1989 7.96992 27.183C7.60162 27.167 7.24619 27.0429 6.94807 26.826C6.64994 26.6092 6.42235 26.3093 6.29375 25.9638C6.16515 25.6183 6.14125 25.2426 6.22503 24.8836L7.80589 18.0234L2.51956 13.4039C2.23996 13.1628 2.03778 12.8444 1.93837 12.4888C1.83897 12.1332 1.84676 11.7562 1.96077 11.405C2.07479 11.0539 2.28995 10.7442 2.57927 10.5148C2.8686 10.2854 3.21921 10.1465 3.58714 10.1156L10.5551 9.5121L13.275 3.0246C13.4171 2.68419 13.6566 2.39342 13.9636 2.18889C14.2706 1.98436 14.6312 1.87523 15 1.87523C15.3689 1.87523 15.7295 1.98436 16.0364 2.18889C16.3434 2.39342 16.583 2.68419 16.725 3.0246L19.4531 9.5121L26.4188 10.1156C26.7867 10.1465 27.1373 10.2854 27.4266 10.5148C27.716 10.7442 27.9311 11.0539 28.0451 11.405C28.1592 11.7562 28.1669 12.1332 28.0675 12.4888C27.9681 12.8444 27.766 13.1628 27.4864 13.4039H27.4805Z" fill="#F39C11"/>
</svg>
